@startuml
'https://plantuml.com/class-diagram

abstract class AbstractList
abstract AbstractCollection
interface List
interface Collection

List <|-- AbstractList
Collection <|-- AbstractCollection

Collection <|- List
AbstractCollection <|- AbstractList
AbstractList <|-- ArrayList

class ArrayList {
Object[] elementData
size()
}


class B{
+s : String
}

class ArrayListt {
+s : String
Object[] elementData
size()
}

'Class ArrayListt is nested inside the outer class ArrayList

ArrayList *--> ArrayListt

enum TimeUnit {
DAYS
HOURS
MINUTES
}

@enduml